<svg width="453" height="94" xmlns="http://www.w3.org/2000/svg"><defs><linearGradient x1="25.501%" y1="13.681%" x2="73.12%" y2="84.309%" id="a"><stop stop-color="#FF5274" offset="0%"/><stop stop-color="#6446FA" offset="100%"/></linearGradient></defs><g fill="none"><path d="M125.625 32.41h12.174V17.43c0-6.29 3.149-10.634 10.51-10.634h18.454v12.51H153.72c-1.873 0-2.81 1.043-2.81 3.128v9.974h41.625V84.12h-13.112v-39.2h-28.512v39.2h-13.112v-39.2h-12.174V32.408zm53.922-25.613h13.007v13.032h-13.007V6.797zm37.964 40.209c0 1.668.868 2.867 2.602 3.596 1.734.73 4.89 1.338 9.47 1.825 5.272.556 9.573 2.137 12.903 4.744 3.33 2.606 4.994 6.238 4.994 10.895v.625c0 5.144-1.873 9.244-5.619 12.303-3.746 3.058-9.018 4.587-15.817 4.587-4.023 0-7.457-.521-10.302-1.564-2.844-1.042-5.203-2.346-7.076-3.91-1.873-1.563-3.312-3.301-4.318-5.212-1.006-1.912-1.682-3.771-2.03-5.578l12.072-3.962c.555 2.224 1.717 4.17 3.486 5.838 1.769 1.669 4.491 2.503 8.168 2.503 3.26 0 5.498-.504 6.712-1.512 1.214-1.008 1.821-2.103 1.821-3.284 0-.695-.156-1.338-.468-1.93-.312-.59-.885-1.146-1.717-1.667-.833-.521-1.96-.956-3.382-1.303-1.422-.348-3.209-.626-5.36-.834-5.826-.487-10.457-1.999-13.891-4.536-3.434-2.537-5.15-6.273-5.15-11.207v-.626c0-2.572.554-4.83 1.664-6.777a16.132 16.132 0 014.37-4.952c1.804-1.355 3.885-2.38 6.244-3.076a25.635 25.635 0 017.284-1.042c3.26 0 6.088.4 8.481 1.199 2.393.8 4.422 1.842 6.087 3.128 1.665 1.285 3.018 2.71 4.059 4.274 1.04 1.564 1.838 3.076 2.393 4.535l-11.863 4.796c-.624-1.876-1.7-3.353-3.225-4.43-1.527-1.078-3.504-1.617-5.932-1.617-2.22 0-3.885.4-4.995 1.2-1.11.798-1.665 1.789-1.665 2.97zm50.677 0c0 1.668.867 2.867 2.602 3.596 1.734.73 4.89 1.338 9.469 1.825 5.272.556 9.573 2.137 12.903 4.744 3.33 2.606 4.995 6.238 4.995 10.895v.625c0 5.144-1.873 9.244-5.619 12.303-3.746 3.058-9.018 4.587-15.817 4.587-4.024 0-7.458-.521-10.302-1.564-2.844-1.042-5.203-2.346-7.076-3.91-1.873-1.563-3.312-3.301-4.318-5.212-1.006-1.912-1.683-3.771-2.03-5.578l12.071-3.962c.555 2.224 1.717 4.17 3.486 5.838 1.77 1.669 4.492 2.503 8.169 2.503 3.26 0 5.498-.504 6.712-1.512 1.214-1.008 1.82-2.103 1.82-3.284 0-.695-.155-1.338-.467-1.93-.313-.59-.885-1.146-1.717-1.667-.833-.521-1.96-.956-3.382-1.303-1.422-.348-3.209-.626-5.36-.834-5.827-.487-10.457-1.999-13.891-4.536-3.434-2.537-5.151-6.273-5.151-11.207v-.626c0-2.572.555-4.83 1.665-6.777a16.132 16.132 0 014.37-4.952c1.804-1.355 3.885-2.38 6.244-3.076a25.635 25.635 0 017.284-1.042c3.26 0 6.087.4 8.48 1.199 2.394.8 4.423 1.842 6.088 3.128 1.665 1.285 3.018 2.71 4.059 4.274 1.04 1.564 1.838 3.076 2.393 4.535l-11.863 4.796c-.624-1.876-1.7-3.353-3.226-4.43-1.526-1.078-3.503-1.617-5.931-1.617-2.22 0-3.885.4-4.995 1.2-1.11.798-1.665 1.789-1.665 2.97zm49.145-2.086h-12.136V32.41h25.247v51.732l-13.111-.02V44.92zm.116-38.123h13.008v13.032h-13.008V6.797zm77.729 52.094c0 4.31-.729 8.115-2.185 11.416-1.457 3.302-3.434 6.082-5.932 8.34-2.497 2.26-5.359 3.98-8.585 5.162-3.226 1.181-6.607 1.772-10.145 1.772-3.539 0-6.92-.59-10.146-1.772-3.226-1.182-6.088-2.902-8.585-5.161-2.498-2.26-4.475-5.04-5.932-8.34-1.456-3.302-2.185-7.108-2.185-11.417V57.64c0-4.24.729-8.01 2.185-11.312 1.457-3.302 3.434-6.1 5.932-8.393a25.557 25.557 0 018.585-5.213c3.226-1.181 6.607-1.772 10.146-1.772 3.538 0 6.92.59 10.145 1.772a25.557 25.557 0 018.585 5.213c2.498 2.294 4.475 5.091 5.932 8.393 1.456 3.301 2.185 7.072 2.185 11.312v1.25zM368.33 73.07c1.873 0 3.642-.313 5.307-.938a12.87 12.87 0 004.37-2.711c1.249-1.182 2.237-2.624 2.966-4.327.728-1.703 1.092-3.631 1.092-5.786v-2.085c0-2.155-.364-4.084-1.092-5.787-.729-1.702-1.717-3.145-2.966-4.326a12.87 12.87 0 00-4.37-2.71c-1.665-.626-3.434-.94-5.307-.94-1.874 0-3.643.314-5.308.94a12.87 12.87 0 00-4.37 2.71c-1.249 1.181-2.237 2.624-2.966 4.326-.728 1.703-1.092 3.632-1.092 5.787v2.085c0 2.155.364 4.083 1.092 5.786.729 1.703 1.717 3.145 2.966 4.327a12.87 12.87 0 004.37 2.71c1.665.626 3.434.939 5.308.939zm49.303 11.051h-13.112V32.41h13.112v7.716h1.873c1.18-2.92 3.087-5.179 5.723-6.777 2.636-1.599 5.723-2.398 9.261-2.398 2.498 0 4.84.4 7.024 1.199a15.71 15.71 0 015.776 3.7c1.665 1.67 2.965 3.789 3.902 6.36.936 2.572 1.405 5.63 1.405 9.175v32.737h-13.112v-29.4c0-3.684-.884-6.586-2.653-8.706-1.77-2.12-4.319-3.18-7.649-3.18-3.885 0-6.78 1.303-8.689 3.91-1.907 2.606-2.861 6.099-2.861 10.478V84.12z" fill="#1E2347"/><path d="M29.5 76.398c1.974-3.868 5.99-6.516 10.624-6.516 6.585 0 11.923 5.348 11.923 11.946S46.71 93.774 40.124 93.774c-4.634 0-8.65-2.648-10.624-6.516H18.445C8.268 87.258.018 78.992.018 68.796c0-10.197 8.25-18.463 18.427-18.463H44.42l-4.387-6.516h-21.59C8.269 43.817.019 35.551.019 25.355c0-10.197 8.25-18.463 18.427-18.463 5.9 0 10.84 2.283 14.42 6.97.234.306 1.131 1.61 3.245 4.706l9.687 14.389h33.349c4.19 0 7.587-3.404 7.587-7.602 0-4.199-3.397-7.602-7.587-7.602H68.09c-1.973 3.868-5.99 6.516-10.623 6.516-6.585 0-11.924-5.349-11.924-11.946 0-6.598 5.339-11.947 11.924-11.947 4.633 0 8.65 2.648 10.623 6.516h11.056c10.177 0 18.427 8.266 18.427 18.463 0 10.196-8.25 18.462-18.427 18.462H53.108l4.387 6.516h21.65c10.178 0 18.428 8.266 18.428 18.463 0 10.196-8.25 18.462-18.427 18.462-5.634 0-10.86-2.556-14.54-7.133l-2.682-3.793-10.192-15.138H18.445c-4.19 0-7.588 3.403-7.588 7.602 0 4.198 3.397 7.602 7.588 7.602H29.5zm41.34-6.242l2.401 3.414a7.556 7.556 0 005.905 2.828c4.19 0 7.587-3.404 7.587-7.602 0-4.199-3.397-7.602-7.587-7.602h-14.34l6.033 8.962zM27.144 24.67a725.11 725.11 0 00-2.887-4.208c-1.462-1.913-3.187-2.71-5.813-2.71-4.19 0-7.588 3.403-7.588 7.602 0 4.198 3.397 7.602 7.588 7.602h14.278l-5.578-8.286z" fill="url(#a)"/></g></svg>